PathFileType	4	(X/Y/Z)	c:/Users/goper/Files/vsCode/490R/osim_files/A01/A01_PWS_04.trc
DataRate	CameraRate	NumFrames	NumMarkers	Units                	OrigDataRate	OrigDataStartFrame	OrigNumFrames
120.00	120.00	6	36	mm	120.0	889	1184
                Frame#	Time	Mobility_markerset:LPSIS			Mobility_markerset:LASIS			Mobility_markerset:LTH1			Mobility_markerset:LTH2			Mobility_markerset:LTH3			Mobility_markerset:LTH4			Mobility_markerset:LLFE			Mobility_markerset:LMFE			Mobility_markerset:LSH1			Mobility_markerset:LSH2			Mobility_markerset:LSH3			Mobility_markerset:LSH4			Mobility_markerset:LLMAL			Mobility_markerset:LMMAL			Mobility_markerset:LCAL			Mobility_markerset:LMTP5			Mobility_markerset:LTOE			Mobility_markerset:LMTP1			Mobility_markerset:RPSIS			Mobility_markerset:RASIS			Mobility_markerset:RTH1			Mobility_markerset:RTH2			Mobility_markerset:RTH3			Mobility_markerset:RTH4			Mobility_markerset:RLFE			Mobility_markerset:RMFE			Mobility_markerset:RSH1			Mobility_markerset:RSH2			Mobility_markerset:RSH3			Mobility_markerset:RSH4			Mobility_markerset:RLMAL			Mobility_markerset:RMMAL			Mobility_markerset:RCAL			Mobility_markerset:RMTP1			Mobility_markerset:RTOE			Mobility_markerset:RMTP5		
		X1	Y1	Z1	X2	Y2	Z2	X3	Y3	Z3	X4	Y4	Z4	X5	Y5	Z5	X6	Y6	Z6	X7	Y7	Z7	X8	Y8	Z8	X9	Y9	Z9	X10	Y10	Z10	X11	Y11	Z11	X12	Y12	Z12	X13	Y13	Z13	X14	Y14	Z14	X15	Y15	Z15	X16	Y16	Z16	X17	Y17	Z17	X18	Y18	Z18	X19	Y19	Z19	X20	Y20	Z20	X21	Y21	Z21	X22	Y22	Z22	X23	Y23	Z23	X24	Y24	Z24	X25	Y25	Z25	X26	Y26	Z26	X27	Y27	Z27	X28	Y28	Z28	X29	Y29	Z29	X30	Y30	Z30	X31	Y31	Z31	X32	Y32	Z32	X33	Y33	Z33	X34	Y34	Z34	X35	Y35	Z35	X36	Y36	Z36

889	7.40000	0.00000	0.00000	0.00000	-3661.15015	1009.69421	427.30042	-3570.56787	686.72052	430.19720	-3567.99219	642.85187	414.49744	-3512.09961	689.53564	416.83444	-3516.76978	643.17303	406.11554	-3552.21094	524.05261	371.94202	0.00000	0.00000	0.00000	-3465.46289	383.00897	338.58487	0.00000	0.00000	0.00000	-3521.78125	358.03983	339.25085	-3499.87720	319.47385	335.80106	-3385.38867	104.70385	286.52911	-3380.79761	109.46512	199.40274	-3303.21631	89.99638	239.71106	-3517.03247	40.52996	308.42679	-3547.03174	60.99300	240.59837	-3532.62622	52.31094	205.73587	-3520.76929	1039.48120	149.05241	-3757.21265	982.91992	186.84077	-3758.29492	677.20856	62.62723	-3777.99756	638.88623	69.49930	-3810.10669	699.80896	90.27701	-3821.64258	658.64679	91.18675	-3859.35229	523.94788	129.75418	-3790.70557	504.06082	239.75105	-3864.96655	318.28220	74.98715	-3885.04980	277.83905	75.24677	-3916.72290	337.96176	102.04224	-3930.56396	295.31696	98.83408	-3967.28442	111.56020	109.99427	-3940.83960	126.75286	194.59317	0.00000	0.00000	0.00000	-4067.45557	125.96395	264.55536	-4105.96729	158.24223	237.16501	-4111.33594	111.30402	159.71346
890	7.40833	0.00000	0.00000	0.00000	-3667.82202	1008.34216	428.31198	-3576.58423	685.68463	430.21863	-3573.84863	641.82440	414.52698	-3517.38989	688.94983	416.19638	-3522.93408	642.37457	405.82275	-3557.56860	523.08783	372.18008	0.00000	0.00000	0.00000	-3469.25977	383.01770	338.59335	0.00000	0.00000	0.00000	-3525.01929	357.26306	339.29526	-3502.89233	319.07825	335.87924	-3386.07178	105.48194	286.40384	-3381.75903	110.27326	199.22562	-3305.12866	92.32001	238.57043	-3517.10254	40.48630	308.43747	-3547.21509	60.88138	240.50775	-3532.79321	52.21721	205.80235	-3530.52710	1038.72107	147.94246	-3766.51514	981.14154	188.38820	-3769.63135	677.06616	64.50725	-3789.36743	638.80756	71.91076	-3821.35742	699.94238	92.32713	-3832.84106	658.75159	93.65653	-3870.17651	523.59717	135.00957	-3799.37939	503.54874	242.55095	-3872.93628	317.35541	78.26163	-3892.34619	276.49097	78.40041	-3924.78711	336.16489	105.81622	-3937.97900	293.30042	102.46737	-3972.50903	110.06846	112.72887	-3944.33081	124.40869	196.67107	-3918.77783	58.43880	132.44528	-4070.15161	120.45316	268.47345	-4109.39502	152.10963	241.45717	-4115.31152	105.98071	164.59044
891	7.41667	0.00000	0.00000	0.00000	-3674.43018	1006.81769	429.29105	-3582.80420	684.48151	430.22723	-3579.88428	640.64349	414.59424	-3523.75537	688.14966	415.96890	-3528.70386	641.55548	405.85550	-3563.06226	522.03510	372.38013	0.00000	0.00000	0.00000	-3472.57324	383.13834	338.18307	0.00000	0.00000	0.00000	-3528.83496	356.66132	339.46426	-3506.10107	318.69830	335.93390	-3386.78979	106.29411	286.29285	-3383.04053	111.41782	199.40562	-3304.86279	93.21698	238.73268	-3517.15576	40.42706	308.42264	-3547.40308	60.75850	240.44977	-3532.98096	52.14523	205.91293	-3539.60059	1038.39417	147.07257	-3776.00049	979.55762	189.71693	-3781.25195	676.80560	66.82015	-3800.52222	638.21716	74.64183	-3832.85376	700.10046	94.57322	-3844.32349	658.93719	96.52256	-3880.51294	522.59241	140.37274	-3808.88501	504.18796	245.91922	-3879.70020	316.00577	81.35396	-3897.97119	275.00174	80.78377	-3931.73071	333.87042	109.12211	-3944.42700	290.85275	105.55635	-3976.34839	108.01678	115.05886	-3948.06763	121.84627	199.54807	-3921.07397	58.65065	133.18213	0.00000	0.00000	0.00000	-4112.68652	145.39258	247.06306	-4118.10645	99.33590	168.93118
892	7.42500	0.00000	0.00000	0.00000	-3681.48462	1005.38525	430.06790	-3589.36206	683.23993	430.25140	-3586.17700	639.37769	414.64157	-3530.28784	687.30096	415.85828	-3535.06006	640.70300	405.80188	-3568.91772	520.98993	372.67871	0.00000	0.00000	0.00000	-3476.80420	383.20099	338.21317	0.00000	0.00000	0.00000	-3532.53101	355.89575	339.51385	-3509.42017	318.27872	335.99857	-3387.77734	107.37493	286.27924	-3383.84253	112.21032	198.29846	-3305.84790	95.10249	238.51161	-3517.25171	40.33187	308.40967	-3547.62036	60.54581	240.35977	0.00000	0.00000	0.00000	-3548.65552	1037.70276	146.73172	-3785.68042	978.19604	190.88243	-3792.91968	676.32489	69.47399	-3812.25098	637.91589	78.04237	-3844.20239	700.12665	97.03953	-3855.87451	659.05493	99.66960	-3890.14380	520.97278	145.49431	-3819.09155	505.30353	249.28839	-3885.54614	314.30182	84.12068	-3903.79004	272.89172	83.81987	-3937.84351	331.18207	111.96874	-3949.77124	287.95084	108.22044	-3979.04517	105.34202	116.95259	-3949.89600	118.47762	201.28781	-3922.85620	58.31326	133.74251	-4072.00415	106.29542	275.25482	-4114.31494	137.68314	251.82242	-4119.56396	92.59281	173.04411
893	7.43333	0.00000	0.00000	0.00000	-3688.94922	1003.90167	430.93536	-3596.10254	682.00964	430.38571	-3592.76953	638.22015	414.77341	-3537.02808	686.32263	415.71051	-3541.72534	639.68030	405.70190	-3575.09814	519.96552	373.12033	0.00000	0.00000	0.00000	-3481.22998	383.18082	338.41245	0.00000	0.00000	0.00000	-3536.67847	355.40292	339.78653	-3512.94824	317.91544	336.17661	-3388.88232	108.45026	286.35864	-3384.99048	113.43837	198.11398	-3306.82349	97.18104	238.32968	-3517.37427	40.16267	308.40353	-3547.86523	60.25918	240.29596	0.00000	0.00000	0.00000	0.00000	0.00000	0.00000	-3795.57300	977.26123	191.97011	-3804.20654	675.52380	72.42377	-3823.74854	637.36017	81.54335	-3855.23315	700.02728	99.84907	-3867.11475	659.07855	103.08225	-3898.75342	518.96692	150.12993	-3829.73901	506.31058	252.38387	-3890.78687	312.41550	86.53687	-3908.41821	270.74225	86.22532	-3943.28320	328.35739	114.62949	-3954.55103	284.95786	110.71416	-3981.72461	102.77938	118.87432	-3951.55127	115.13158	202.86554	0.00000	0.00000	0.00000	-4072.69824	99.37706	278.58685	-4115.27881	130.20442	255.53371	-4120.17578	86.42850	176.93681
894	7.44167	0.00000	0.00000	0.00000	-3696.77856	1002.56299	431.64740	-3603.17871	680.82037	430.54184	-3599.62036	637.13202	414.88882	-3544.10864	685.43799	415.61911	-3548.59741	638.82361	405.69110	-3581.60010	518.95117	373.71857	0.00000	0.00000	0.00000	-3485.97437	383.34244	338.75214	0.00000	0.00000	0.00000	-3541.00415	354.88101	340.11951	0.00000	0.00000	0.00000	-3389.90771	109.67740	286.27469	-3386.28809	114.83266	197.96602	-3308.08325	99.56533	238.15221	-3517.54688	40.02359	308.37686	-3548.13623	59.89471	240.25525	0.00000	0.00000	0.00000	0.00000	0.00000	0.00000	-3805.70557	976.76630	193.00685	-3814.88623	674.38953	75.52055	-3834.65649	636.55145	85.08643	-3865.76880	699.64215	102.78510	-3877.90479	658.78802	106.60521	-3906.42432	516.99005	153.74637	-3840.55298	506.99207	255.10861	-3895.96436	310.49478	88.90705	-3913.14185	268.65152	88.52766	-3948.50464	325.78012	117.16328	-3959.35913	282.29095	113.24438	-3985.15649	100.46486	120.71069	-3954.14917	112.36343	204.48930	0.00000	0.00000	0.00000	-4073.80664	93.37864	281.39920	-4117.70605	124.30262	260.33569	-4121.29932	80.70134	180.31631
